<svg width="26" height="26" viewBox="0 0 26 26" fill="none" xmlns="http://www.w3.org/2000/svg">
<path d="M1 7.26087V4.13043C1 2.40154 2.40154 1 4.13043 1H7.26087" stroke="black" stroke-width="1.83" stroke-linecap="round" stroke-linejoin="round"/>
<path d="M25 7.26087V4.13043C25 2.40154 23.5985 1 21.8696 1H18.7391" stroke="black" stroke-width="1.83" stroke-linecap="round" stroke-linejoin="round"/>
<path d="M1 18.7391V21.8696C1 23.5985 2.40154 25 4.13043 25H7.26087" stroke="black" stroke-width="1.83" stroke-linecap="round" stroke-linejoin="round"/>
<path d="M25 18.7391V21.8696C25 23.5985 23.5985 25 21.8696 25H18.7391" stroke="black" stroke-width="1.83" stroke-linecap="round" stroke-linejoin="round"/>
<path d="M4.60938 20.3952C6.3912 19.362 8.28659 18.5384 10.2577 17.9409C11.1311 17.6174 11.2261 15.615 10.6 14.9252C9.69633 13.9319 8.93042 12.7663 8.93042 9.95307C8.82395 8.81937 9.20844 7.6944 9.98654 6.86303C10.7646 6.03166 11.8617 5.57362 13 5.6049C14.1382 5.57362 15.2353 6.03166 16.0134 6.86303C16.7915 7.6944 17.176 8.81937 17.0695 9.95307C17.0695 12.7705 16.3036 13.9319 15.4 14.9252C14.7739 15.615 14.8689 17.6174 15.7422 17.9409C17.7134 18.5384 19.6088 19.362 21.3906 20.3952" stroke="black" stroke-width="1.83" stroke-linecap="round" stroke-linejoin="round"/>
</svg>
